<svg width="23" height="49" viewBox="0 0 23 49" fill="none" xmlns="http://www.w3.org/2000/svg">
<path d="M5.7 2.87V17.57C3.25 18.83 1.29 20.93 0.1 23.45V2.87C0.1 1.33 1.36 0.0699958 2.9 0.0699958C4.44 0.0699958 5.7 1.33 5.7 2.87ZM19.35 0.0699958C20.89 0.0699958 22.15 1.33 22.15 2.87V23.45C20.96 20.93 18.93 18.83 16.55 17.57V2.87C16.55 1.33 17.74 0.0699958 19.35 0.0699958ZM16.55 18.9C19.7 20.86 21.94 24.36 22.15 28.49V29.26C22.01 30.66 20.82 31.78 19.35 31.78C17.81 31.78 16.55 30.52 16.55 28.98V28.63C16.41 27.16 15.85 25.76 14.87 24.71C13.82 23.66 12.49 23.03 11.09 23.03C9.69 23.03 8.36 23.66 7.38 24.71C6.4 25.76 5.84 27.09 5.7 28.49V28.98C5.7 30.52 4.44 31.78 2.9 31.78C1.5 31.78 0.31 30.73 0.1 29.33V28.28C0.38 24.29 2.55 20.79 5.7 18.9C7.31 17.99 9.13 17.43 11.09 17.43C13.05 17.43 14.94 17.99 16.55 18.9ZM0.1 46.2V31.85C0.87 32.55 1.85 32.97 2.9 32.97C4.02 32.97 5 32.55 5.7 31.85V46.2C5.7 47.74 4.44 49 2.9 49C1.36 49 0.1 47.74 0.1 46.2ZM16.55 46.2V31.85C17.25 32.55 18.23 32.97 19.35 32.97C20.4 32.97 21.38 32.55 22.15 31.85V46.2C22.15 47.74 20.89 49 19.35 49C17.74 49 16.55 47.74 16.55 46.2Z" fill="#40AD80"/>
</svg>
