<svg width="274" height="90" viewBox="0 0 274 90" fill="none" xmlns="http://www.w3.org/2000/svg">
<path d="M271.443 58.9602H273.963C268.503 69.0402 262.763 71.6302 254.783 71.4202C241.553 71.0002 241.343 54.2702 247.853 43.9102C253.173 35.6502 262.273 33.9002 266.263 37.2602C269.833 40.1302 269.903 45.4502 267.803 49.5802C264.653 55.3902 258.773 57.5602 252.753 57.3502C252.823 60.7102 254.083 64.6302 257.093 66.1002C262.483 68.6202 268.153 64.4202 271.443 58.9602ZM253.033 53.2902C253.033 53.5702 252.963 53.8502 252.963 54.0602C264.023 54.4102 265.283 41.1102 263.533 39.7102C262.133 38.6602 259.053 39.9902 256.533 43.9802C255.063 46.2202 253.803 49.3702 253.033 53.2902Z" fill="white"/>
<path d="M227.589 43.6304C231.999 36.2804 237.949 32.8504 247.119 38.3104L240.609 43.7004C234.939 39.5704 229.759 44.9604 226.189 50.7704L222.269 71.0004H212.399L219.469 36.0004H229.059L227.589 43.6304Z" fill="white"/>
<path d="M214.978 58.9602H217.498C212.038 69.0402 206.298 71.6302 198.318 71.4202C185.088 71.0002 184.878 54.2702 191.388 43.9102C196.708 35.6502 205.808 33.9002 209.798 37.2602C213.368 40.1302 213.438 45.4502 211.338 49.5802C208.188 55.3902 202.308 57.5602 196.288 57.3502C196.358 60.7102 197.618 64.6302 200.628 66.1002C206.018 68.6202 211.688 64.4202 214.978 58.9602ZM196.568 53.2902C196.568 53.5702 196.498 53.8502 196.498 54.0602C207.558 54.4102 208.818 41.1102 207.068 39.7102C205.668 38.6602 202.588 39.9902 200.068 43.9802C198.598 46.2202 197.338 49.3702 196.568 53.2902Z" fill="white"/>
<path d="M180.213 18.3602H189.733L179.023 71.0002H169.433L174.893 44.4702H161.313L155.993 71.0002H146.263L155.923 24.2402C151.023 24.7302 146.403 25.4302 143.253 28.0902C140.803 30.1202 141.223 35.7902 143.953 40.6202L134.503 44.9602C133.313 35.3002 135.343 29.1402 139.613 25.2202C145.563 19.4802 155.713 18.2902 166.563 18.2202L162.503 38.3802H176.153L180.213 18.3602Z" fill="#40AD80"/>
<path d="M132.873 58.9603H135.463C131.333 66.1703 125.103 71.1403 117.403 71.4203C107.253 71.8403 104.243 62.3903 106.203 52.8703C107.533 46.1503 111.243 39.2203 117.543 36.6303C121.253 35.0903 124.893 35.3703 127.343 37.3303C130.913 40.1303 131.613 45.6603 129.513 49.5803C129.233 50.2103 128.883 50.7003 128.533 51.2603L125.313 45.5903C126.923 42.5103 126.713 40.2703 125.873 39.7103C125.033 39.1503 123.563 39.3603 122.023 40.4803C118.033 43.3503 116.003 49.0903 115.303 53.5703C114.253 60.7803 116.073 64.9803 119.293 66.2403C124.333 68.2003 129.443 63.3003 132.873 58.9603Z" fill="white"/>
<path d="M107.631 58.7504H110.431C104.831 73.7304 84.1813 77.7204 88.1013 58.4704L91.8113 40.2704H87.6113L89.3613 36.0004H92.7213L94.6113 26.9004L104.551 24.9404L102.381 36.0004H108.051L106.021 40.2704H101.611L96.9213 63.5104C95.3113 71.7004 105.251 65.6104 107.631 58.7504Z" fill="white"/>
<path d="M88.1509 59.03H90.8809C86.0509 71.91 69.2509 76.46 68.3409 64.42C60.9209 75.48 44.9609 73.45 46.2209 58.96C47.2009 47.69 52.7309 36.42 65.2609 36H82.9709L82.4109 38.66C80.2409 49.37 78.7709 55.6 77.1609 63.65C75.6209 71.63 85.8409 65.61 88.1509 59.03ZM68.5509 59.8L71.9109 42.44C67.6409 34.67 59.3809 42.23 56.9309 53.57C54.2709 66.24 58.8909 72.82 68.5509 59.8Z" fill="white"/>
<path d="M44.2402 36H49.8402L32.7602 71H23.5902L23.2402 47.06L11.8302 71H2.45023L2.24023 36H11.4102L11.6202 59.94L23.2402 36H32.2002L32.7602 59.87L44.2402 36Z" fill="white"/>
</svg>
