<svg width="350" height="70" viewBox="0 0 350 70" fill="none" xmlns="http://www.w3.org/2000/svg">
<path d="M349.184 34C349.184 34.5 349.084 34.9 348.984 35.3C348.484 36.9 346.884 38 345.184 38C342.984 38 341.184 36.2 341.184 34C341.184 33.8 341.184 33.6 341.084 33.4C340.984 31.3 340.184 29.4 338.784 27.9C337.284 26.4 335.384 25.5 333.384 25.5C331.384 25.5 329.484 26.4 328.084 27.9C326.684 29.4 325.884 31.3 325.684 33.4V34C325.684 36.2 323.884 38 321.684 38C319.884 38 318.384 36.9 317.884 35.3C317.784 34.9 317.684 34.5 317.684 34V33.4C317.684 32.7 317.784 32.1 317.884 31.4C319.084 23.6 325.584 17.5 333.384 17.5C341.284 17.5 347.784 23.6 348.984 31.4C349.084 32.1 349.084 32.7 349.184 33.4V34ZM349.184 55.1C349.184 59.5 347.484 63.4 344.384 66.1C341.484 68.6 337.584 70 333.384 70C324.784 70 317.684 62.6 317.684 53.5V38.1C318.084 38.4 318.484 38.8 318.884 39C319.684 39.5 320.684 39.7 321.684 39.7C323.284 39.7 324.684 39.1 325.684 38.1C326.084 37.7 326.384 37.3 326.684 36.8C326.984 37.5 327.484 38.2 328.084 38.8C329.484 40.3 331.384 41.2 333.384 41.2C335.384 41.2 337.284 40.3 338.784 38.8C339.384 38.2 339.784 37.5 340.184 36.8C341.184 38.6 342.984 39.7 345.184 39.7C346.184 39.7 347.084 39.5 347.984 39C345.584 45 339.984 49.2 333.384 49.2C330.584 49.2 327.984 48.4 325.684 47.1V53.5C325.684 55.8 326.484 58 328.084 59.6C329.484 61.1 331.384 62 333.384 62C335.684 62 337.684 61.3 339.084 60.1C340.484 58.9 341.184 57.2 341.184 55.1C341.184 52.9 342.984 51.1 345.184 51.1C347.384 51.1 349.184 52.9 349.184 55.1Z" fill="white"/>
<path d="M307.743 23.4001C309.143 25.1001 308.943 27.6001 307.143 29.0001C305.443 30.4001 302.943 30.2001 301.543 28.5001C300.043 26.6001 297.943 25.6001 295.743 25.6001C293.743 25.6001 291.843 26.4001 290.443 28.0001C288.943 29.6001 288.043 31.8001 288.043 34.1001C288.043 36.3001 286.243 38.1001 284.043 38.1001C281.843 38.1001 280.043 36.3001 280.043 34.1001V22.2001C280.043 20.0001 281.843 18.2001 284.043 18.2001C285.443 18.2001 286.743 19.0001 287.443 20.1001C289.843 18.5001 292.743 17.6001 295.743 17.6001C300.443 17.6001 304.743 19.7001 307.743 23.4001ZM284.043 39.8001C285.643 39.8001 287.043 39.2001 288.043 38.1001V66.0001C288.043 68.2001 286.243 70.0001 284.043 70.0001C281.843 70.0001 280.043 68.2001 280.043 66.0001V38.1001C281.043 39.2001 282.443 39.8001 284.043 39.8001Z" fill="white"/>
<path d="M268.043 34C268.043 34.5 267.943 34.9 267.843 35.3C267.343 36.9 265.743 38 264.043 38C261.843 38 260.043 36.2 260.043 34C260.043 33.8 260.043 33.6 259.943 33.4C259.843 31.3 259.043 29.4 257.643 27.9C256.143 26.4 254.243 25.5 252.243 25.5C250.243 25.5 248.343 26.4 246.943 27.9C245.543 29.4 244.743 31.3 244.543 33.4V34C244.543 36.2 242.743 38 240.543 38C238.743 38 237.243 36.9 236.743 35.3C236.643 34.9 236.543 34.5 236.543 34V33.4C236.543 32.7 236.643 32.1 236.743 31.4C237.943 23.6 244.443 17.5 252.243 17.5C260.143 17.5 266.643 23.6 267.843 31.4C267.943 32.1 267.943 32.7 268.043 33.4V34ZM268.043 55.1C268.043 59.5 266.343 63.4 263.243 66.1C260.343 68.6 256.443 70 252.243 70C243.643 70 236.543 62.6 236.543 53.5V38.1C236.943 38.4 237.343 38.8 237.743 39C238.543 39.5 239.543 39.7 240.543 39.7C242.143 39.7 243.543 39.1 244.543 38.1C244.943 37.7 245.243 37.3 245.543 36.8C245.843 37.5 246.343 38.2 246.943 38.8C248.343 40.3 250.243 41.2 252.243 41.2C254.243 41.2 256.143 40.3 257.643 38.8C258.243 38.2 258.643 37.5 259.043 36.8C260.043 38.6 261.843 39.7 264.043 39.7C265.043 39.7 265.943 39.5 266.843 39C264.443 45 258.843 49.2 252.243 49.2C249.443 49.2 246.843 48.4 244.543 47.1V53.5C244.543 55.8 245.343 58 246.943 59.6C248.343 61.1 250.243 62 252.243 62C254.543 62 256.543 61.3 257.943 60.1C259.343 58.9 260.043 57.2 260.043 55.1C260.043 52.9 261.843 51.1 264.043 51.1C266.243 51.1 268.043 52.9 268.043 55.1Z" fill="white"/>
<path d="M201.043 4.1001V25.1001C197.543 26.9001 194.743 29.9001 193.043 33.5001V4.1001C193.043 1.9001 194.843 0.100098 197.043 0.100098C199.243 0.100098 201.043 1.9001 201.043 4.1001ZM220.543 0.100098C222.743 0.100098 224.543 1.9001 224.543 4.1001V33.5001C222.843 29.9001 219.943 26.9001 216.543 25.1001V4.1001C216.543 1.9001 218.243 0.100098 220.543 0.100098ZM216.543 27.0001C221.043 29.8001 224.243 34.8001 224.543 40.7001V41.8001C224.343 43.8001 222.643 45.4001 220.543 45.4001C218.343 45.4001 216.543 43.6001 216.543 41.4001V40.9001C216.343 38.8001 215.543 36.8001 214.143 35.3001C212.643 33.8001 210.743 32.9001 208.743 32.9001C206.743 32.9001 204.843 33.8001 203.443 35.3001C202.043 36.8001 201.243 38.7001 201.043 40.7001V41.4001C201.043 43.6001 199.243 45.4001 197.043 45.4001C195.043 45.4001 193.343 43.9001 193.043 41.9001V40.4001C193.443 34.7001 196.543 29.7001 201.043 27.0001C203.343 25.7001 205.943 24.9001 208.743 24.9001C211.543 24.9001 214.243 25.7001 216.543 27.0001ZM193.043 66.0001V45.5001C194.143 46.5001 195.543 47.1001 197.043 47.1001C198.643 47.1001 200.043 46.5001 201.043 45.5001V66.0001C201.043 68.2001 199.243 70.0001 197.043 70.0001C194.843 70.0001 193.043 68.2001 193.043 66.0001ZM216.543 66.0001V45.5001C217.543 46.5001 218.943 47.1001 220.543 47.1001C222.043 47.1001 223.443 46.5001 224.543 45.5001V66.0001C224.543 68.2001 222.743 70.0001 220.543 70.0001C218.243 70.0001 216.543 68.2001 216.543 66.0001Z" fill="#40AD80"/>
<path d="M181.043 34.3999C181.043 36.5999 179.243 38.3999 177.043 38.3999C174.843 38.3999 173.043 36.5999 173.043 34.3999C173.043 32.0999 172.143 29.8999 170.643 28.2999C169.243 26.6999 167.343 25.8999 165.343 25.8999C163.343 25.8999 161.343 26.6999 159.943 28.2999C158.443 29.8999 157.543 32.0999 157.543 34.3999V49.6999C156.543 48.5999 155.143 47.9999 153.543 47.9999C152.043 47.9999 150.643 48.5999 149.543 49.6999V34.3999C149.543 25.2999 156.643 17.8999 165.343 17.8999C173.943 17.8999 181.043 25.2999 181.043 34.3999ZM165.243 69.9999C156.643 69.9999 149.543 62.5999 149.543 53.4999C149.543 51.2999 151.343 49.4999 153.543 49.4999C155.743 49.4999 157.543 51.2999 157.543 53.4999C157.543 55.7999 158.343 57.9999 159.943 59.5999C161.343 61.1999 163.243 61.9999 165.243 61.9999C167.243 61.9999 169.143 61.1999 170.643 59.5999C172.143 57.9999 173.043 55.7999 173.043 53.4999C173.043 51.2999 174.843 49.4999 177.043 49.4999C179.243 49.4999 181.043 51.2999 181.043 53.4999C181.043 62.5999 173.943 69.9999 165.243 69.9999Z" fill="white"/>
<path d="M129.038 17.6C129.038 19.8 127.238 21.6 125.038 21.6H118.438V49.4C117.437 48.4 116.038 47.8 114.438 47.8C112.838 47.8 111.438 48.4 110.438 49.4V4C110.438 1.8 112.237 0 114.438 0C116.638 0 118.438 1.8 118.438 4V13.6H125.038C127.238 13.6 129.038 15.4 129.038 17.6ZM114.438 49.5C116.638 49.5 118.438 51.3 118.438 53.5C118.438 55.8 119.338 58 120.838 59.6C122.238 61.2 124.137 62 126.137 62C128.337 62 130.438 61 131.938 59.1C133.337 57.4 135.838 57.2 137.538 58.6C139.338 60 139.537 62.5 138.137 64.2C135.137 67.9 130.837 70 126.137 70C117.537 70 110.438 62.6 110.438 53.5C110.438 51.3 112.237 49.5 114.438 49.5Z" fill="white"/>
<path d="M82.7375 17.5C91.3375 17.5 98.4375 24.9 98.4375 34V49.4C98.0375 49 97.6375 48.7 97.2375 48.5C96.4375 48 95.4375 47.8 94.4375 47.8C92.8375 47.8 91.4375 48.4 90.4375 49.4C90.0375 49.8 89.7375 50.2 89.4375 50.7C89.0375 50 88.6375 49.3 88.0375 48.7C86.6375 47.2 84.7375 46.3 82.7375 46.3C80.7375 46.3 78.7375 47.2 77.3375 48.7C76.7375 49.3 76.3375 50 75.9375 50.7C74.9375 48.9 73.1375 47.8 70.9375 47.8C69.9375 47.8 69.0375 48 68.1375 48.5C70.5375 42.5 76.1375 38.3 82.7375 38.3C85.5375 38.3 88.1375 39.1 90.4375 40.5V34C90.4375 31.7 89.5375 29.6 88.0375 27.9C86.6375 26.4 84.7375 25.5 82.7375 25.5C80.4375 25.5 78.4375 26.2 77.0375 27.4C75.6375 28.6 74.9375 30.3 74.9375 32.4C74.9375 34.6 73.1375 36.4 70.9375 36.4C68.7375 36.4 66.9375 34.6 66.9375 32.4C66.9375 28 68.6375 24.1 71.7375 21.4C74.6375 18.9 78.4375 17.5 82.7375 17.5ZM94.4375 49.5C96.6375 49.5 98.4375 51.3 98.4375 53.5C98.4375 62.6 91.3375 70 82.6375 70C74.0375 70 66.9375 62.6 66.9375 53.5C66.9375 51.3 68.7375 49.5 70.9375 49.5C73.1375 49.5 74.9375 51.3 74.9375 53.5C74.9375 55.8 75.7375 58 77.3375 59.6C78.7375 61.2 80.6375 62 82.6375 62C84.6375 62 86.5375 61.2 88.0375 59.6C89.5375 58 90.4375 55.8 90.4375 53.5C90.4375 51.3 92.2375 49.5 94.4375 49.5Z" fill="white"/>
<path d="M8 49.4C7 48.4 5.6 47.7 4 47.7C2.5 47.7 1 48.4 0 49.4V21.5C0 19.3 1.8 17.5 4 17.5C6.2 17.5 8 19.3 8 21.5V49.4ZM31.5 49.4C30.5 48.4 29 47.8 27.5 47.7C25.9 47.8 24.5 48.4 23.5 49.4V21.5C23.5 19.3 25.3 17.5 27.5 17.5C29.7 17.5 31.5 19.3 31.5 21.5V49.4ZM54.9 49.4C53.9 48.4 52.4 47.7 50.9 47.7C49.3 47.7 47.9 48.4 46.9 49.4V21.5C46.9 19.3 48.7 17.5 50.9 17.5C53.1 17.5 54.9 19.3 54.9 21.5V49.4ZM22.3 58C23 61 24.4 63.6 26.3 65.8C23.5 68.4 19.8 70 15.8 70C7.1 70 0 62.6 0 53.5V53.1C0.2 51 1.9 49.4 4 49.4C6.1 49.4 7.8 51 8 53.1V53.5C8 58.1 11.5 62 15.8 62C18.5 62 20.9 60.4 22.3 58ZM54.9 53.5C54.9 55.2 54.6 56.9 54.2 58.4C52.2 65.1 46.2 69.9 39.2 70C30.5 70 23.4 62.6 23.4 53.5C23.4 52.8 23.6 52.2 23.8 51.7C24.5 50.4 25.8 49.5 27.4 49.5C29 49.5 30.4 50.4 31 51.7C31.3 52.2 31.4 52.8 31.4 53.5C31.4 55.8 32.3 57.9 33.8 59.6C35.2 61.1 37.2 62 39.2 62C41.2 62 43.1 61.1 44.5 59.6C46 57.9 46.9 55.8 46.9 53.5C46.9 52.8 47 52.2 47.3 51.7C48 50.4 49.3 49.5 50.9 49.5C52.5 49.5 53.8 50.4 54.5 51.7C54.7 52.2 54.9 52.8 54.9 53.5Z" fill="white"/>
</svg>
